<svg xmlns="http://www.w3.org/2000/svg" xmlns:xlink="http://www.w3.org/1999/xlink" version="1.1" id="Capa_1" x="0px" y="0px" viewBox="0 0 511.657 511.657" style="enable-background:new 0 0 511.657 511.657;" xml:space="preserve" width="300" height="300" xmlns:svgjs="http://svgjs.dev/svgjs"><g width="100%" height="100%" transform="matrix(1,0,0,1,0,0)"><g id="Outline_00000033336991483146907920000011475204083367536570_">
	<path style="stroke-miterlimit: 10;" d="M42.978,128.777&#10;&#9;&#9;c-22.31,37.2-35.15,80.71-35.15,127.17c0,59.07,20.75,113.37,55.36,156.01" fill="none" fill-opacity="1" stroke="#ffffff" stroke-opacity="1" data-original-stroke-color="#013b95ff" stroke-width="15" data-original-stroke-width="15"/>
	<path style="stroke-miterlimit: 10;" d="M404.948,57.907&#10;&#9;&#9;c-41.53-31.35-93.19-49.96-149.12-49.96s-107.59,18.61-149.12,49.96" fill="none" fill-opacity="1" stroke="#ffffff" stroke-opacity="1" data-original-stroke-color="#013b95ff" stroke-width="15" data-original-stroke-width="15"/>
	<path style="stroke-miterlimit: 10;" d="M448.468,411.957&#10;&#9;&#9;c34.61-42.64,55.36-96.94,55.36-156.01c0-46.46-12.84-89.97-35.15-127.17" fill="none" fill-opacity="1" stroke="#ffffff" stroke-opacity="1" data-original-stroke-color="#013b95ff" stroke-width="15" data-original-stroke-width="15"/>
	<path style="stroke-miterlimit: 10;" d="M113.718,459.087&#10;&#9;&#9;c40.27,28.26,89.28,44.86,142.11,44.86s101.84-16.6,142.11-44.86" fill="none" fill-opacity="1" stroke="#ffffff" stroke-opacity="1" data-original-stroke-color="#013b95ff" stroke-width="15" data-original-stroke-width="15"/>
	<path style="stroke-miterlimit: 10;" d="M275.828,69.003&#10;&#9;&#9;c-6.573-0.698-13.245-1.056-20-1.056c-31.371,0-60.971,7.723-87,21.369" fill="none" fill-opacity="1" stroke="#ffffff" stroke-opacity="1" data-original-stroke-color="#013b95ff" stroke-width="15" data-original-stroke-width="15"/>
	<path style="stroke-miterlimit: 10;" d="M305.829,74.696&#10;&#9;&#9;c-4.923-1.36-9.926-2.523-15-3.483" fill="none" fill-opacity="1" stroke="#ffffff" stroke-opacity="1" data-original-stroke-color="#013b95ff" stroke-width="15" data-original-stroke-width="15"/>
	<path style="stroke-miterlimit: 10;" d="M333.93,84.946&#10;&#9;&#9;c-4.604-2.111-9.308-4.042-14.102-5.783" fill="none" fill-opacity="1" stroke="#ffffff" stroke-opacity="1" data-original-stroke-color="#013b95ff" stroke-width="15" data-original-stroke-width="15"/>
	<path style="stroke-miterlimit: 10;" d="M68.885,235.947&#10;&#9;&#9;c-0.698,6.573-1.056,13.245-1.056,20c0,28.689,6.459,55.897,18,80.247" fill="none" fill-opacity="1" stroke="#ffffff" stroke-opacity="1" data-original-stroke-color="#013b95ff" stroke-width="15" data-original-stroke-width="15"/>
	<path style="stroke-miterlimit: 10;" d="M74.578,205.946&#10;&#9;&#9;c-1.36,4.923-2.523,9.926-3.483,15" fill="none" fill-opacity="1" stroke="#ffffff" stroke-opacity="1" data-original-stroke-color="#013b95ff" stroke-width="15" data-original-stroke-width="15"/>
	<path style="stroke-miterlimit: 10;" d="M84.828,177.845&#10;&#9;&#9;c-2.111,4.604-4.042,9.308-5.783,14.102" fill="none" fill-opacity="1" stroke="#ffffff" stroke-opacity="1" data-original-stroke-color="#013b95ff" stroke-width="15" data-original-stroke-width="15"/>
	<path style="stroke-miterlimit: 10;" d="M235.828,442.89&#10;&#9;&#9;c6.573,0.698,13.245,1.056,20,1.056c27.849,0,54.303-6.087,78.102-17" fill="none" fill-opacity="1" stroke="#ffffff" stroke-opacity="1" data-original-stroke-color="#013b95ff" stroke-width="15" data-original-stroke-width="15"/>
	<path style="stroke-miterlimit: 10;" d="M205.828,437.197&#10;&#9;&#9;c4.923,1.36,9.926,2.523,15,3.483" fill="none" fill-opacity="1" stroke="#ffffff" stroke-opacity="1" data-original-stroke-color="#013b95ff" stroke-width="15" data-original-stroke-width="15"/>
	<path style="stroke-miterlimit: 10;" d="M177.726,426.947&#10;&#9;&#9;c4.604,2.111,9.308,4.042,14.102,5.783" fill="none" fill-opacity="1" stroke="#ffffff" stroke-opacity="1" data-original-stroke-color="#013b95ff" stroke-width="15" data-original-stroke-width="15"/>
	<path style="stroke-miterlimit: 10;" d="M442.772,275.947&#10;&#9;&#9;c0.698-6.573,1.056-13.245,1.056-20c0-31.371-7.723-60.971-21.368-87" fill="none" fill-opacity="1" stroke="#ffffff" stroke-opacity="1" data-original-stroke-color="#013b95ff" stroke-width="15" data-original-stroke-width="15"/>
	<path style="stroke-miterlimit: 10;" d="M437.079,305.947&#10;&#9;&#9;c1.36-4.923,2.523-9.926,3.483-15" fill="none" fill-opacity="1" stroke="#ffffff" stroke-opacity="1" data-original-stroke-color="#013b95ff" stroke-width="15" data-original-stroke-width="15"/>
	<path style="stroke-miterlimit: 10;" d="M426.829,334.049&#10;&#9;&#9;c2.111-4.604,4.042-9.308,5.783-14.102" fill="none" fill-opacity="1" stroke="#ffffff" stroke-opacity="1" data-original-stroke-color="#013b95ff" stroke-width="15" data-original-stroke-width="15"/>
	<circle style="stroke-miterlimit: 10;" cx="255.828" cy="255.947" r="130" fill="none" fill-opacity="1" stroke="#ffffff" stroke-opacity="1" data-original-stroke-color="#013b95ff" stroke-width="15" data-original-stroke-width="15"/>
	<path style="stroke-miterlimit: 10;" d="M167.828,351.947v-4&#10;&#9;&#9;c0-39.949,26.622-73.675,63.092-84.419" fill="none" fill-opacity="1" stroke="#ffffff" stroke-opacity="1" data-original-stroke-color="#013b95ff" stroke-width="15" data-original-stroke-width="15"/>
	<path style="stroke-miterlimit: 10;" d="M280.737,263.528&#10;&#9;&#9;c36.469,10.744,63.092,44.469,63.092,84.419v4" fill="none" fill-opacity="1" stroke="#ffffff" stroke-opacity="1" data-original-stroke-color="#013b95ff" stroke-width="15" data-original-stroke-width="15"/>
	
		<line style="stroke-miterlimit: 10;" x1="305.828" y1="329.947" x2="305.828" y2="375.947" fill="none" fill-opacity="1" stroke="#ffffff" stroke-opacity="1" data-original-stroke-color="#013b95ff" stroke-width="15" data-original-stroke-width="15"/>
	
		<line style="stroke-miterlimit: 10;" x1="255.828" y1="326.947" x2="255.828" y2="385.947" fill="none" fill-opacity="1" stroke="#ffffff" stroke-opacity="1" data-original-stroke-color="#013b95ff" stroke-width="15" data-original-stroke-width="15"/>
	
		<line style="stroke-miterlimit: 10;" x1="255.828" y1="296.947" x2="255.828" y2="311.947" fill="none" fill-opacity="1" stroke="#ffffff" stroke-opacity="1" data-original-stroke-color="#013b95ff" stroke-width="15" data-original-stroke-width="15"/>
	
		<line style="stroke-miterlimit: 10;" x1="205.828" y1="329.947" x2="205.828" y2="375.947" fill="none" fill-opacity="1" stroke="#ffffff" stroke-opacity="1" data-original-stroke-color="#013b95ff" stroke-width="15" data-original-stroke-width="15"/>
	<path style="stroke-miterlimit: 10;" d="M255.828,273.947L255.828,273.947&#10;&#9;&#9;c-19.33,0-35-15.67-35-35v-27h70v27C290.828,258.277,275.158,273.947,255.828,273.947z" fill="none" fill-opacity="1" stroke="#ffffff" stroke-opacity="1" data-original-stroke-color="#013b95ff" stroke-width="15" data-original-stroke-width="15"/>
	<path style="stroke-miterlimit: 10;" d="M220.828,211.947v-20c0-11.046,8.954-20,20-20h60&#10;&#9;&#9;l-10,40" fill="none" fill-opacity="1" stroke="#ffffff" stroke-opacity="1" data-original-stroke-color="#013b95ff" stroke-width="15" data-original-stroke-width="15"/>
	<polygon style="stroke-miterlimit: 10;" points="80.828,16.947 100.605,57.019 &#10;&#9;&#9;144.828,63.445 112.828,94.638 120.383,138.682 80.828,117.887 41.274,138.682 48.828,94.638 16.828,63.445 61.051,57.019 &#9;" fill="none" fill-opacity="1" stroke="#ffffff" stroke-opacity="1" data-original-stroke-color="#013b95ff" stroke-width="15" data-original-stroke-width="15"/>
	<polygon style="stroke-miterlimit: 10;" points="430.828,16.947 411.051,57.019 &#10;&#9;&#9;366.828,63.445 398.828,94.638 391.274,138.682 430.828,117.887 470.383,138.682 462.828,94.638 494.828,63.445 450.605,57.019 &#9;&#10;&#9;&#9;" fill="none" fill-opacity="1" stroke="#ffffff" stroke-opacity="1" data-original-stroke-color="#013b95ff" stroke-width="15" data-original-stroke-width="15"/>
	<polygon style="stroke-miterlimit: 10;" points="80.828,376.211 100.605,416.284 &#10;&#9;&#9;144.828,422.71 112.828,453.902 120.383,497.947 80.828,477.152 41.274,497.947 48.828,453.902 16.828,422.71 61.051,416.284 &#9;" fill="none" fill-opacity="1" stroke="#ffffff" stroke-opacity="1" data-original-stroke-color="#013b95ff" stroke-width="15" data-original-stroke-width="15"/>
	<polygon style="stroke-miterlimit: 10;" points="430.828,376.211 411.051,416.284 &#10;&#9;&#9;366.828,422.71 398.828,453.902 391.274,497.947 430.828,477.152 470.383,497.947 462.828,453.902 494.828,422.71 450.605,416.284 &#10;&#9;&#9;&#9;" fill="none" fill-opacity="1" stroke="#ffffff" stroke-opacity="1" data-original-stroke-color="#013b95ff" stroke-width="15" data-original-stroke-width="15"/>
</g></g></svg>