<?xml version="1.0" encoding="UTF-8"?>
<svg id="Layer_1" data-name="Layer 1" xmlns="http://www.w3.org/2000/svg" xmlns:xlink="http://www.w3.org/1999/xlink" viewBox="0 0 211.43 227.4">
  <defs>
    <style>
      .cls-1 {
        fill: url(#linear-gradient-2);
      }

      .cls-2 {
        fill: url(#linear-gradient);
      }
    </style>
    <linearGradient id="linear-gradient" x1="105.71" y1="229.36" x2="105.71" y2="1.96" gradientTransform="translate(0 229.36) scale(1 -1)" gradientUnits="userSpaceOnUse">
      <stop offset=".29" stop-color="#f5f3f5"/>
      <stop offset=".36" stop-color="#f5f3f5" stop-opacity=".94"/>
      <stop offset=".49" stop-color="#f5f3f5" stop-opacity=".8"/>
      <stop offset=".66" stop-color="#f5f3f5" stop-opacity=".56"/>
      <stop offset=".86" stop-color="#f5f3f5" stop-opacity=".23"/>
      <stop offset="1" stop-color="#f5f3f5" stop-opacity="0"/>
    </linearGradient>
    <linearGradient id="linear-gradient-2" x1="105.69" y1="158.89" x2="105.69" y2="72.47" xlink:href="#linear-gradient"/>
  </defs>
  <path class="cls-2" d="M105.69,227.38c-4.72.08-9.44-.25-14.1-1-5.79-.82-10.5-5.08-11.9-10.76-.95-3.43-2.24-8.25-3.49-12.91s-2.53-9.5-3.48-12.92c-.66-2.34-2.3-5.2-3.6-6.23l-.17-.13c-.78-.65-1.61-1.25-2.48-1.77h0c-.89-.49-1.82-.91-2.78-1.26l-.22-.09c-1.52-.6-4.81-.59-7.17,0-3.42.88-8.23,2.18-12.88,3.43s-9.51,2.55-13,3.45c-5.62,1.64-11.68-.31-15.29-4.92-2.97-3.67-5.61-7.59-7.89-11.72-2.44-4.04-4.52-8.29-6.21-12.7-2.18-5.43-.84-11.65,3.4-15.69,2.5-2.56,6-6.09,9.47-9.51s6.93-6.93,9.41-9.45c1.7-1.74,2.94-3.88,3.59-6.22v-.22c.39-2.02.39-4.1,0-6.12v-.24c-.65-2.34-1.89-4.47-3.6-6.2-2.47-2.52-6-6-9.4-9.45s-7-7-9.48-9.51c-4.23-4.05-5.57-10.27-3.39-15.7,1.69-4.4,3.77-8.65,6.21-12.69,2.28-4.13,4.92-8.06,7.89-11.73,3.62-4.6,9.67-6.55,15.29-4.91,3.47.9,8.3,2.2,13,3.45s9.46,2.55,12.88,3.43c2.36.6,4.83.6,7.19,0l.2-.08c.96-.35,1.89-.77,2.78-1.26.88-.53,1.72-1.13,2.51-1.79l.2-.16c1.7-1.74,2.93-3.87,3.58-6.21,1-3.42,2.24-8.25,3.48-12.92s2.54-9.48,3.49-12.92c1.39-5.69,6.11-9.96,11.91-10.78,9.35-1.29,18.84-1.29,28.19,0,5.78.84,10.47,5.1,11.86,10.77.95,3.43,2.24,8.25,3.49,12.91s2.53,9.5,3.48,12.92c.66,2.35,1.89,4.49,3.6,6.23l.18.14c1.55,1.34,3.34,2.38,5.28,3.05l.23.09c2.35.6,4.82.6,7.17,0,3.42-.88,8.23-2.18,12.88-3.43s9.51-2.55,13-3.45c5.62-1.64,11.68.31,15.29,4.92,2.97,3.67,5.61,7.59,7.89,11.72,2.44,4.04,4.52,8.29,6.21,12.7,2.18,5.43.84,11.65-3.4,15.69-2.5,2.56-6,6.09-9.47,9.51s-6.93,6.93-9.41,9.45c-1.7,1.74-2.94,3.88-3.59,6.22v.22c-.39,2.02-.39,4.1,0,6.12v.24c.65,2.34,1.89,4.47,3.6,6.2,2.47,2.52,6,6,9.4,9.45s7,6.95,9.48,9.51c4.23,4.05,5.57,10.27,3.39,15.7-3.56,8.75-8.31,16.96-14.1,24.42-3.62,4.6-9.67,6.55-15.29,4.91-3.47-.9-8.3-2.2-13-3.45s-9.46-2.55-12.88-3.43c-2.36-.6-4.83-.6-7.19,0l-.2.08c-.96.35-1.89.77-2.78,1.26-.88.53-1.73,1.14-2.52,1.8l-.19.15c-1.28,1-2.92,3.87-3.58,6.21-1,3.42-2.24,8.25-3.48,12.92s-2.49,9.47-3.49,12.96c-1.39,5.69-6.11,9.96-11.91,10.78-4.66.72-9.38,1.03-14.09.92ZM70.89,173.96c1.25.74,2.44,1.58,3.56,2.51l.19.15c3.21,2.56,5.63,7.26,6.62,10.79s2.26,8.32,3.51,13,2.52,9.43,3.47,12.83c.44,2.35,2.36,4.14,4.74,4.4,8.43,1.15,16.98,1.15,25.41,0,2.38-.26,4.31-2.05,4.75-4.4.95-3.4,2.23-8.19,3.47-12.83s2.54-9.55,3.51-13,3.41-8.23,6.57-10.73l.2-.16c1.13-.93,2.33-1.78,3.59-2.52,1.26-.71,2.57-1.32,3.93-1.82l.22-.09c3.82-1.5,9.1-1.25,12.66-.34s8.3,2.19,13,3.45,9.46,2.55,12.88,3.43c2.26.79,4.76.02,6.19-1.9,2.67-3.32,5.04-6.86,7.09-10.59,2.21-3.65,4.1-7.48,5.64-11.46.95-2.19.37-4.75-1.44-6.31-2.48-2.53-6-6.05-9.42-9.46s-7-7-9.47-9.51-5.43-7.07-6-11.11v-.26c-.52-2.87-.52-5.82,0-8.69v-.23c.61-4.06,3.47-8.51,6-11.13s6.05-6.09,9.47-9.51,6.94-6.93,9.41-9.45c1.83-1.56,2.42-4.14,1.45-6.34-1.53-3.97-3.41-7.79-5.62-11.43-2.04-3.73-4.42-7.27-7.09-10.57-1.42-1.92-3.92-2.69-6.18-1.91-3.43.88-8.24,2.18-12.89,3.43s-9.51,2.55-13,3.45-8.84,1.16-12.64-.33l-.24-.1c-1.38-.51-2.72-1.12-4-1.84-1.24-.74-2.42-1.58-3.54-2.5l-.19-.15c-3.21-2.56-5.63-7.26-6.62-10.79s-2.26-8.32-3.51-13-2.52-9.43-3.47-12.83c-.44-2.35-2.36-4.14-4.74-4.4-8.43-1.15-16.98-1.15-25.41,0-2.38.26-4.31,2.05-4.75,4.4-.95,3.4-2.23,8.19-3.47,12.83s-2.54,9.55-3.51,13-3.41,8.23-6.61,10.78l-.2.16c-2.23,1.88-4.77,3.35-7.52,4.34l-.22.09c-3.82,1.5-9.11,1.25-12.66.34s-8.3-2.2-13-3.45-9.46-2.55-12.88-3.43c-2.26-.79-4.77-.02-6.19,1.9-2.67,3.31-5.04,6.86-7.09,10.59-2.18,3.64-4.04,7.46-5.56,11.42-.95,2.19-.37,4.75,1.44,6.31,2.48,2.53,6,6.05,9.42,9.46s7,6.95,9.47,9.51,5.43,7.07,6,11.11v.25c.24,1.44.37,2.91.39,4.37-.02,1.45-.15,2.89-.39,4.32v.24c-.61,4.06-3.47,8.51-6,11.13s-6.05,6.09-9.47,9.51-6.94,6.93-9.41,9.45c-1.83,1.56-2.42,4.14-1.45,6.34,1.53,3.97,3.41,7.79,5.62,11.43,2.05,3.73,4.42,7.26,7.09,10.57,1.42,1.93,3.92,2.7,6.18,1.91,3.43-.88,8.24-2.18,12.89-3.43,4.65-1.25,9.51-2.56,13-3.45s8.84-1.16,12.64.33l.24.1c1.36.51,2.67,1.12,3.94,1.82h0Z"/>
  <path class="cls-1" d="M105.69,156.89c-23.86,0-43.21-19.35-43.21-43.21,0-23.86,19.35-43.21,43.21-43.21s43.21,19.35,43.21,43.21h0c-.03,23.85-19.36,43.18-43.21,43.21ZM105.69,79.34c-18.97,0-34.34,15.37-34.34,34.34s15.37,34.34,34.34,34.34,34.34-15.37,34.34-34.34c-.03-18.95-15.39-34.31-34.34-34.34h0Z"/>
</svg>